<?xml version="1.0" encoding="UTF-8" standalone="no"?>
<!DOCTYPE svg PUBLIC "-//W3C//DTD SVG 1.1//EN" "http://www.w3.org/Graphics/SVG/1.1/DTD/svg11.dtd">
<svg version="1.1" xmlns="http://www.w3.org/2000/svg" xmlns:xlink="http://www.w3.org/1999/xlink" preserveAspectRatio="xMidYMid meet" viewBox="0 0 72 30" width="72" height="30"><defs><path d="" id="cwBiyyjcv"></path><path d="M33.14 7.55C33.14 7.55 33.17 7.55 33.23 7.56C33.29 7.58 33.33 7.58 33.44 7.61C33.55 7.64 33.65 7.65 33.81 7.71C33.97 7.76 34.11 7.8 34.32 7.88C34.52 7.96 34.7 8.03 34.95 8.14C35.19 8.25 35.36 8.33 35.63 8.48C35.9 8.63 36.11 8.75 36.39 8.95C36.67 9.15 36.9 9.32 37.18 9.57C37.46 9.82 37.69 10.05 37.97 10.35C38.25 10.64 38.45 10.9 38.7 11.26C38.95 11.61 39.15 11.92 39.35 12.32C39.56 12.73 39.74 13.09 39.89 13.53C40.04 13.98 40.16 14.41 40.27 14.88C40.38 15.35 40.42 15.8 40.45 16.3C40.49 16.79 40.46 17.26 40.43 17.76C40.39 18.26 40.29 18.74 40.18 19.23C40.07 19.72 39.9 20.19 39.72 20.66C39.54 21.12 39.3 21.58 39.05 22.01C38.8 22.44 38.5 22.86 38.2 23.24C37.9 23.62 37.54 23.99 37.19 24.31C36.85 24.64 36.45 24.96 36.07 25.22C35.7 25.48 35.27 25.75 34.88 25.95C34.5 26.14 34.07 26.33 33.69 26.48C33.31 26.63 32.85 26.77 32.48 26.85C32.11 26.94 31.69 27.02 31.35 27.07C31.01 27.11 30.61 27.15 30.31 27.16C30 27.17 29.67 27.16 29.41 27.16C29.14 27.15 28.82 27.12 28.6 27.09C28.38 27.07 28.14 27.03 27.97 27C27.81 26.97 27.62 26.94 27.5 26.91C27.39 26.89 27.3 26.87 27.24 26.86C27.18 26.84 27.15 26.84 27.15 26.84C27.15 26.84 27.16 26.85 27.16 26.85C27.16 26.85 27.16 26.86 27.16 26.86C27.17 26.86 27.17 26.87 27.17 26.87C27.17 26.87 27.18 26.88 27.18 26.88C27.18 26.88 27.19 26.88 27.19 26.89C27.19 26.89 27.2 26.89 27.2 26.9C27.2 26.9 27.21 26.9 27.21 26.9C27.22 26.91 27.22 26.91 27.22 26.91C27.23 26.92 27.23 26.92 27.24 26.92C27.24 26.92 27.25 26.93 27.25 26.93C27.26 26.93 27.26 26.93 27.27 26.94C27.27 26.94 27.28 26.94 27.28 26.94C27.29 26.95 27.29 26.95 27.3 26.95C27.3 26.95 27.31 26.96 27.31 26.96C27.32 26.96 27.33 26.96 27.33 26.97C27.34 26.97 27.34 26.97 27.35 26.98C27.35 26.98 27.36 26.98 27.36 26.98C27.37 26.99 27.37 26.99 27.38 26.99C27.38 26.99 27.39 27 27.39 27C27.4 27 27.41 27 27.41 27.01C27.42 27.01 27.42 27.01 27.42 27.01C27.43 27.02 27.43 27.02 27.44 27.02C27.44 27.02 27.45 27.03 27.45 27.03C27.46 27.03 27.46 27.04 27.47 27.04C27.47 27.04 27.47 27.04 27.48 27.05C27.48 27.05 27.48 27.05 27.49 27.05C27.49 27.06 27.49 27.06 27.5 27.06C27.5 27.07 27.5 27.07 27.5 27.07C27.51 27.08 27.51 27.08 27.51 27.08C27.51 27.08 27.52 27.09 27.52 27.09C27.52 27.09 27.52 27.1 27.52 27.1C27.52 27.1 27.52 27.11 27.52 27.11C27.52 27.11 27.55 27.12 27.6 27.14C27.65 27.15 27.78 27.18 27.88 27.21C27.98 27.23 28.16 27.27 28.31 27.29C28.46 27.32 28.68 27.36 28.88 27.38C29.07 27.4 29.33 27.42 29.57 27.44C29.8 27.45 30.1 27.45 30.37 27.45C30.64 27.45 31.03 27.42 31.33 27.39C31.63 27.36 32.04 27.3 32.36 27.23C32.68 27.16 33.11 27.05 33.45 26.95C33.79 26.84 34.22 26.68 34.56 26.53C34.91 26.39 35.37 26.16 35.71 25.95C36.05 25.75 36.46 25.48 36.79 25.24C37.12 24.99 37.53 24.65 37.83 24.35C38.13 24.05 38.47 23.68 38.75 23.34C39.02 23.01 39.32 22.56 39.55 22.19C39.78 21.81 40.03 21.34 40.2 20.94C40.37 20.53 40.54 20.07 40.67 19.65C40.79 19.23 40.91 18.73 40.97 18.3C41.03 17.87 41.08 17.4 41.09 16.97C41.11 16.55 41.09 16.07 41.05 15.66C41.01 15.25 40.94 14.81 40.86 14.42C40.78 14.04 40.66 13.62 40.53 13.26C40.41 12.91 40.27 12.54 40.11 12.22C39.96 11.9 39.79 11.58 39.62 11.3C39.45 11.01 39.27 10.74 39.09 10.49C38.91 10.25 38.73 10.02 38.55 9.82C38.38 9.62 38.2 9.43 38.04 9.26C37.88 9.1 37.72 8.94 37.57 8.82C37.43 8.7 37.3 8.58 37.18 8.49C37.06 8.4 36.96 8.32 36.88 8.26C36.8 8.19 36.73 8.15 36.69 8.11C36.65 8.08 36.62 8.07 36.62 8.06C36.63 8.06 36.65 8.07 36.7 8.1C36.74 8.13 36.81 8.18 36.9 8.24C36.98 8.3 37.08 8.37 37.21 8.46C37.33 8.55 37.47 8.66 37.62 8.79C37.76 8.92 37.93 9.07 38.09 9.24C38.26 9.4 38.44 9.59 38.62 9.79C38.8 9.99 38.99 10.24 39.17 10.48C39.35 10.72 39.54 11.01 39.71 11.29C39.88 11.58 40.05 11.91 40.21 12.24C40.36 12.56 40.53 12.95 40.64 13.31C40.76 13.68 40.88 14.09 40.96 14.48C41.04 14.87 41.11 15.32 41.15 15.73C41.2 16.15 41.2 16.65 41.18 17.07C41.17 17.5 41.11 17.99 41.05 18.42C40.99 18.85 40.85 19.37 40.72 19.79C40.59 20.22 40.41 20.73 40.22 21.13C40.03 21.53 39.78 21.99 39.56 22.37C39.33 22.75 39 23.19 38.72 23.53C38.44 23.87 38.06 24.28 37.75 24.57C37.43 24.86 37.04 25.18 36.7 25.43C36.37 25.68 35.91 25.97 35.55 26.16C35.2 26.35 34.76 26.57 34.41 26.71C34.06 26.86 33.61 27.01 33.27 27.12C32.92 27.23 32.48 27.32 32.15 27.38C31.83 27.45 31.4 27.5 31.1 27.53C30.8 27.56 30.39 27.57 30.12 27.57C29.85 27.57 29.48 27.56 29.24 27.54C29.01 27.52 28.73 27.49 28.54 27.46C28.35 27.43 28.11 27.4 27.96 27.37C27.81 27.34 27.62 27.3 27.52 27.28C27.42 27.25 27.34 27.23 27.29 27.22C27.24 27.21 27.21 27.2 27.21 27.2C27.21 27.21 27.24 27.22 27.31 27.24C27.38 27.26 27.54 27.31 27.67 27.34C27.81 27.37 28.03 27.43 28.23 27.47C28.43 27.5 28.72 27.55 28.97 27.58C29.23 27.61 29.64 27.66 29.95 27.66C30.26 27.67 30.72 27.68 31.07 27.65C31.43 27.62 31.93 27.57 32.33 27.5C32.72 27.42 33.25 27.29 33.67 27.17C34.1 27.05 34.68 26.81 35.12 26.62C35.55 26.42 36.12 26.09 36.55 25.82C36.98 25.55 37.51 25.12 37.92 24.78C38.32 24.43 38.84 23.88 39.18 23.44C39.52 23.01 39.93 22.41 40.21 21.92C40.49 21.43 40.82 20.72 41 20.17C41.18 19.61 41.38 18.91 41.48 18.33C41.57 17.75 41.63 17.02 41.64 16.43C41.65 15.84 41.57 15.07 41.46 14.5C41.36 13.92 41.17 13.24 40.98 12.69C40.79 12.14 40.47 11.47 40.19 10.98C39.91 10.49 39.52 9.93 39.18 9.5C38.84 9.07 38.35 8.57 37.95 8.22C37.55 7.87 37.06 7.48 36.63 7.21C36.2 6.94 35.68 6.65 35.25 6.45C34.81 6.26 34.31 6.08 33.89 5.94C33.48 5.8 32.96 5.69 32.57 5.63C32.17 5.56 31.73 5.51 31.37 5.49C31.01 5.46 30.62 5.46 30.31 5.47C30 5.48 29.66 5.51 29.4 5.55C29.14 5.58 28.89 5.62 28.69 5.65C28.5 5.69 28.3 5.73 28.17 5.76C28.03 5.79 27.9 5.83 27.84 5.84C27.77 5.86 27.73 5.87 27.73 5.86C27.73 5.86 27.76 5.85 27.83 5.82C27.9 5.8 28.03 5.76 28.16 5.73C28.29 5.69 28.49 5.64 28.68 5.6C28.88 5.56 29.14 5.52 29.39 5.48C29.65 5.44 29.99 5.41 30.3 5.39C30.61 5.38 31.02 5.38 31.38 5.4C31.73 5.42 32.19 5.46 32.58 5.53C32.98 5.59 33.51 5.7 33.93 5.84C34.35 5.97 34.85 6.16 35.29 6.35C35.72 6.54 36.26 6.84 36.69 7.11C37.12 7.38 37.63 7.77 38.03 8.12C38.43 8.46 38.93 8.98 39.28 9.41C39.62 9.85 40.02 10.41 40.3 10.9C40.58 11.4 40.88 12.05 41.09 12.59C41.3 13.12 41.49 13.88 41.6 14.46C41.71 15.03 41.79 15.83 41.78 16.42C41.78 17 41.72 17.75 41.63 18.33C41.53 18.91 41.33 19.64 41.15 20.19C40.97 20.74 40.63 21.48 40.35 21.97C40.07 22.47 39.66 23.08 39.32 23.52C38.98 23.95 38.47 24.47 38.09 24.83C37.71 25.2 37.09 25.67 36.67 25.94C36.24 26.21 35.65 26.56 35.22 26.75C34.79 26.95 34.24 27.16 33.83 27.31C33.41 27.45 32.8 27.59 32.41 27.66C32.01 27.74 31.5 27.8 31.14 27.83C30.79 27.86 30.31 27.86 30 27.86C29.69 27.86 29.26 27.82 29.01 27.79C28.75 27.77 28.45 27.72 28.26 27.69C28.06 27.66 27.82 27.61 27.69 27.58C27.56 27.56 27.38 27.51 27.31 27.49C27.25 27.48 27.21 27.47 27.22 27.48C27.22 27.48 27.26 27.5 27.35 27.53C27.43 27.56 27.62 27.62 27.78 27.66C27.93 27.7 28.2 27.76 28.43 27.81C28.66 27.85 29.08 27.92 29.37 27.95C29.67 27.98 30.15 28.02 30.51 28.02C30.86 28.01 31.4 28 31.81 27.95C32.22 27.9 32.88 27.81 33.32 27.69C33.77 27.57 34.37 27.38 34.85 27.21C35.32 27.03 36.07 26.67 36.53 26.39C36.99 26.1 37.64 25.65 38.08 25.29C38.53 24.92 39.17 24.29 39.56 23.82C39.94 23.35 40.43 22.65 40.75 22.11C41.06 21.58 41.45 20.69 41.66 20.09C41.87 19.48 42.1 18.53 42.19 17.88C42.27 17.23 42.33 16.25 42.28 15.58C42.24 14.92 42.09 13.96 41.92 13.31C41.75 12.67 41.42 11.76 41.13 11.16C40.84 10.56 40.34 9.74 39.94 9.22C39.55 8.69 38.91 7.99 38.43 7.56C37.95 7.13 37.2 6.56 36.66 6.24C36.12 5.93 35.36 5.56 34.8 5.33C34.25 5.11 33.38 4.87 32.82 4.76C32.25 4.66 31.47 4.57 30.94 4.56C30.4 4.54 29.66 4.58 29.16 4.64C28.66 4.7 27.98 4.84 27.54 4.96C27.1 5.08 26.49 5.28 26.12 5.45C25.75 5.61 25.28 5.83 24.97 6C24.66 6.17 24.27 6.42 24.03 6.58C23.79 6.74 23.46 6.98 23.29 7.12C23.12 7.27 22.92 7.44 22.8 7.54C22.69 7.65 22.6 7.73 22.54 7.78C22.48 7.84 22.4 7.92 22.4 7.92C22.44 7.88 22.63 7.71 22.97 7.39L23.53 6.94L24.1 6.52L24.77 6.11L25.39 5.77L26.04 5.47L26.7 5.21L27.45 4.97L28.15 4.8L28.85 4.66L29.63 4.57L30.35 4.53L31.06 4.53L31.86 4.59L32.57 4.69L33.27 4.83L33.97 5.01L34.66 5.24L35.4 5.54L36.05 5.85L36.67 6.2L37.35 6.64L37.92 7.07L38.47 7.53L38.99 8.03L39.53 8.62L39.98 9.18L40.4 9.76L40.82 10.44L41.16 11.07L41.46 11.73L41.74 12.47L41.96 13.16L42.13 13.86L42.26 14.57L42.35 15.37L42.39 16.09L42.38 16.82L42.32 17.62L42.21 18.34L42.07 19.05L41.88 19.76L41.62 20.53L41.34 21.2L41.02 21.85L40.66 22.49L40.22 23.17L39.78 23.75L39.31 24.3L38.74 24.88L38.2 25.37L37.64 25.82L37.04 26.24L36.35 26.66L35.71 27L35.05 27.3L34.29 27.59L33.59 27.8L32.89 27.97L32.08 28.11L31.35 28.19L30.62 28.22L29.89 28.21C29.4 28.17 29.13 28.15 29.07 28.14C29.07 28.14 31.14 28.42 31.89 28.34C32.41 28.28 33.26 28.11 33.86 27.95C34.46 27.79 35.54 27.37 36.16 27.03C36.79 26.69 37.74 26.07 38.35 25.57C38.96 25.07 39.86 24.1 40.37 23.41C40.87 22.73 41.63 21.37 41.96 20.41C42.29 19.46 42.65 17.82 42.68 16.72C42.72 15.62 42.51 13.81 42.16 12.72C41.81 11.63 41.03 10 40.35 9.1C39.67 8.21 38.38 6.9 37.45 6.28C36.51 5.66 35 4.93 34.06 4.66C33.12 4.4 31.73 4.18 31.02 4.16C30.3 4.14 29.47 4.21 29.41 4.22C29.35 4.22 28.98 4.26 28.57 4.32C28.16 4.39 27.36 4.57 26.79 4.74C26.22 4.91 25.26 5.33 24.62 5.66C23.99 5.99 22.99 6.69 22.43 7.18C21.86 7.66 21.07 8.53 20.59 9.14C20.11 9.76 19.48 10.91 19.16 11.63C18.85 12.35 18.47 13.61 18.35 14.34C18.22 15.08 18.13 16.24 18.15 16.91C18.17 17.58 18.3 18.68 18.44 19.3C18.58 19.92 18.91 20.94 19.14 21.48C19.37 22.02 19.79 22.82 20.07 23.27C20.34 23.71 20.85 24.39 21.14 24.73C21.42 25.07 21.88 25.53 22.13 25.78C23.17 26.52 22.92 26.21 23.87 26.58C25.27 27.12 27.11 26.53 27.42 25.92C27.74 25.31 27.33 23.65 25.65 21.98C25.4 21.75 25.29 21.66 24.99 21.33C24.7 21.01 24.63 20.93 24.34 20.5C24.05 20.07 23.96 19.91 23.7 19.38C23.44 18.85 23.41 18.73 23.25 18.1C23.08 17.47 23.06 17.3 23.01 16.6C22.96 15.9 22.94 15.78 23.08 14.98C23.22 14.19 23.22 13.97 23.58 13.17C23.93 12.38 24.03 12.12 24.58 11.41C25.13 10.71 25.35 10.5 26.03 9.95C26.72 9.41 26.9 9.29 27.69 8.96C28.49 8.64 28.75 8.52 29.48 8.41C30.21 8.3 30.47 8.25 31 8.27C31.54 8.29 31.73 8.3 31.78 8.31C31.82 8.31 31.97 8.31 32.37 8.38C32.77 8.45 33.02 8.47 33.62 8.67C34.21 8.86 34.54 8.97 35.23 9.36C35.91 9.76 36.26 10 36.9 10.61C37.53 11.21 37.85 11.58 38.33 12.4C38.8 13.23 39.07 13.77 39.3 14.73C39.53 15.69 39.63 16.35 39.57 17.33C39.51 18.31 39.37 19.04 39.08 19.93C38.79 20.82 38.46 21.46 37.94 22.2C37.42 22.94 36.92 23.49 36.27 24.05C35.63 24.6 35.02 24.99 34.34 25.34C34.38 25.34 34.44 25.32 34.52 25.3C34.6 25.28 34.68 25.25 34.78 25.21C34.88 25.16 34.99 25.12 35.12 25.06C35.25 24.99 35.38 24.93 35.53 24.84C35.67 24.75 35.83 24.67 35.99 24.55C36.15 24.44 36.32 24.33 36.5 24.19C36.67 24.06 36.84 23.91 37.03 23.75C37.21 23.59 37.38 23.42 37.56 23.23C37.74 23.04 37.91 22.86 38.08 22.63C38.26 22.41 38.42 22.18 38.59 21.94C38.76 21.69 38.89 21.44 39.04 21.17C39.19 20.9 39.31 20.63 39.44 20.33C39.56 20.03 39.66 19.76 39.76 19.44C39.85 19.12 39.92 18.83 39.99 18.49C40.06 18.16 40.1 17.86 40.13 17.52C40.16 17.17 40.17 16.87 40.17 16.52C40.16 16.17 40.14 15.87 40.1 15.52C40.06 15.17 40 14.88 39.93 14.54C39.86 14.2 39.76 13.92 39.66 13.59C39.55 13.26 39.46 13.03 39.31 12.72C39.16 12.41 39.04 12.17 38.87 11.88C38.7 11.6 38.56 11.38 38.37 11.12C38.18 10.85 38.03 10.66 37.82 10.43C37.61 10.19 37.46 10.03 37.24 9.82C37.02 9.62 36.83 9.46 36.61 9.28C36.39 9.1 36.24 9 36.02 8.85C35.8 8.7 35.67 8.61 35.45 8.49C35.23 8.38 35.07 8.29 34.87 8.19C34.67 8.09 34.52 8.03 34.34 7.95C34.15 7.87 34.02 7.83 33.86 7.77C33.7 7.71 33.6 7.69 33.46 7.64C33.32 7.6 33.25 7.58 33.14 7.55C33.14 7.55 33.14 7.55 33.14 7.55" id="b3U0N4HkF1"></path><path d="M2 16.88L2 14.52L15.91 7.56L15.91 11.65L7.39 15.53L15.91 19.01L15.91 23.05L2 16.88Z" id="a4OUQF0Bfh"></path><path d="M70.27 17.19L70.27 14.83L56.37 7.87L56.37 11.95L64.89 15.84L56.37 19.31L56.37 23.36L70.27 17.19Z" id="aitTdja0h"></path><path d="M46.41 27.78L41.07 27.78L49.48 4.56L54.84 4.56L46.41 27.78Z" id="c8SHp5lpVB"></path></defs><g><g><g><use xlink:href="#cwBiyyjcv" opacity="1" fill="#dff3fb" fill-opacity="1"></use><g><use xlink:href="#cwBiyyjcv" opacity="1" fill-opacity="0" stroke="#000000" stroke-width="1" stroke-opacity="0"></use></g></g><g><use xlink:href="#b3U0N4HkF1" opacity="1" fill="#000000" fill-opacity="1"></use><g><use xlink:href="#b3U0N4HkF1" opacity="1" fill-opacity="0" stroke="#000000" stroke-width="1" stroke-opacity="0"></use></g></g><g><use xlink:href="#a4OUQF0Bfh" opacity="1" fill="#000000" fill-opacity="1"></use><g><use xlink:href="#a4OUQF0Bfh" opacity="1" fill-opacity="0" stroke="#000000" stroke-width="1" stroke-opacity="0"></use></g></g><g><use xlink:href="#aitTdja0h" opacity="1" fill="#000000" fill-opacity="1"></use><g><use xlink:href="#aitTdja0h" opacity="1" fill-opacity="0" stroke="#000000" stroke-width="1" stroke-opacity="0"></use></g></g><g><use xlink:href="#c8SHp5lpVB" opacity="1" fill="#000000" fill-opacity="1"></use><g><use xlink:href="#c8SHp5lpVB" opacity="1" fill-opacity="0" stroke="#000000" stroke-width="1" stroke-opacity="0"></use></g></g></g></g></svg>